<?xml version="1.0" encoding="UTF-8" standalone="no"?>
<!DOCTYPE svg PUBLIC "-//W3C//DTD SVG 1.1//EN" "http://www.w3.org/Graphics/SVG/1.1/DTD/svg11.dtd">
<!-- Created with Vectornator (http://vectornator.io/) -->
<svg height="100%" stroke-miterlimit="10" style="fill-rule:nonzero;clip-rule:evenodd;stroke-linecap:round;stroke-linejoin:round;" version="1.1" viewBox="0 0 124 22" width="100%" xml:space="preserve" xmlns="http://www.w3.org/2000/svg" xmlns:vectornator="http://vectornator.io" xmlns:xlink="http://www.w3.org/1999/xlink">
<defs>
<clipPath id="TextBounds">
<rect height="21.117" width="100.465" x="12.8044" y="0.0569446"/>
</clipPath>
</defs>
<g id="Untitled" vectornator:layerName="Untitled">
<g fill="#000000" opacity="1" stroke="none">
<path clip-path="url(#TextBounds)" d="M22.9124 6.76894C22.2724 8.04894 21.2964 9.07294 20.0004 9.84094L20.8484 10.5609C22.0964 9.77694 23.1204 8.64094 23.8884 7.15294L22.9124 6.76894ZM25.6964 6.67294L24.8324 7.21694C26.0484 8.40094 26.9924 9.47294 27.6804 10.4649L28.6084 9.82494C27.9364 8.92894 26.9604 7.87294 25.6964 6.67294ZM16.3044 4.24094L15.5204 4.99294C16.7844 5.85694 17.7764 6.67294 18.4964 7.44094L19.2804 6.65694C18.4644 5.85694 17.4724 5.04094 16.3044 4.24094ZM15.9204 7.98494L15.1524 8.75294C16.3524 9.61694 17.2964 10.4329 17.9684 11.2009L18.7364 10.4329C17.9684 9.61694 17.0404 8.80094 15.9204 7.98494ZM18.2084 12.4489C17.4244 14.3529 16.5124 16.2089 15.4564 18.0169L16.5284 18.4809C17.4884 16.7209 18.3684 14.8329 19.1524 12.8329L18.2084 12.4489ZM22.7524 12.7209C21.9204 14.3529 20.6084 15.6969 18.8004 16.7529L19.3924 17.7289C21.3604 16.4169 22.7684 14.7529 23.6164 12.7209L23.9044 12.7209L23.9044 18.5929L25.0244 18.5929L25.0244 12.7209L25.3284 12.7209C26.0324 14.5129 27.2644 16.1289 29.0244 17.5849L29.7604 16.6729C28.0644 15.5049 26.8644 14.1929 26.1604 12.7209L29.2164 12.7209L29.2164 11.6809L25.0244 11.6809L25.0244 9.88894L23.9044 9.88894L23.9044 11.6809L19.7444 11.6809L19.7444 12.7209L22.7524 12.7209ZM28.9124 4.64094L20.0324 4.64094L20.0324 7.69694L21.1204 7.69694L21.1204 5.69694L27.8244 5.69694L27.8244 7.63294L28.9124 7.63294L28.9124 4.64094Z"/>
<path clip-path="url(#TextBounds)" d="M38.8484 3.85694L37.5684 4.08094C37.8564 4.46494 38.1444 4.91294 38.4004 5.40894L32.3844 5.40894L32.3844 10.1769C32.3524 13.4409 31.8884 15.9849 31.0084 17.8089L31.9524 18.6569C32.9764 16.5449 33.5044 13.7129 33.5684 10.1769L33.5684 6.52894L45.4244 6.52894L45.4244 5.40894L39.6644 5.40894C39.4084 4.83294 39.1364 4.32094 38.8484 3.85694ZM37.8084 6.97694C37.6324 7.50494 37.4564 8.01694 37.2804 8.51294L34.4484 8.51294L34.4484 9.52094L36.8644 9.52094C36.3684 10.6249 35.8084 11.5529 35.2004 12.3049L35.4404 13.2969L39.6324 13.2969L39.6324 15.0889L33.8564 15.0889L33.8564 16.1449L39.6324 16.1449L39.6324 18.6729L40.7844 18.6729L40.7844 16.1449L45.5684 16.1449L45.5684 15.0889L40.7844 15.0889L40.7844 13.2969L44.3524 13.2969L44.3524 12.2569L40.7844 12.2569L40.7844 10.3209L39.6324 10.3209L39.6324 12.2569L36.6404 12.2569C37.1524 11.4569 37.6324 10.5449 38.0804 9.52094L44.7204 9.52094L44.7204 8.51294L38.4804 8.51294C38.6244 8.09694 38.7684 7.68094 38.9124 7.23294L37.8084 6.97694Z"/>
<path clip-path="url(#TextBounds)" d="M49.3604 4.03294L49.3604 7.05694L47.4084 7.05694L47.4084 8.16094L49.3604 8.16094C48.8644 10.1769 48.0484 11.9849 46.8964 13.5529L47.3924 14.8009C48.1924 13.5529 48.8484 12.1769 49.3604 10.6729L49.3604 18.6409L50.4964 18.6409L50.4964 10.6249C50.9764 11.2329 51.5364 12.0329 52.1924 13.0409L52.8484 12.0649C52.0644 11.0889 51.2804 10.1929 50.4964 9.39294L50.4964 8.16094L52.3524 8.16094L52.3524 7.05694L50.4964 7.05694L50.4964 4.03294L49.3604 4.03294ZM54.0804 11.2649C53.6324 13.2489 52.9124 15.0409 51.9204 16.6569L52.9124 17.2969C53.8724 15.6649 54.6244 13.7449 55.1364 11.5049L54.0804 11.2649ZM59.8724 11.1849L58.8324 11.5209C59.4564 13.2489 60.0324 15.2169 60.5604 17.4409L61.6004 16.9769C61.1204 14.9289 60.5444 12.9929 59.8724 11.1849ZM56.2884 18.4809C57.2164 18.4809 57.6964 18.0009 57.6964 17.0569L57.6964 9.93694L61.6164 9.93694L61.6164 8.83294L52.6404 8.83294L52.6404 9.93694L56.5444 9.93694L56.5444 16.7689C56.5444 17.2329 56.3204 17.4729 55.8884 17.4729C55.4244 17.4729 54.9444 17.4409 54.4324 17.4089L54.6564 18.4809L56.2884 18.4809ZM53.4884 4.94494L53.4884 6.03294L60.7844 6.03294L60.7844 4.94494L53.4884 4.94494Z"/>
<path clip-path="url(#TextBounds)" d="M64.4004 4.22494L63.5684 5.02494C64.7524 5.85694 65.6964 6.65694 66.3684 7.40894L67.1844 6.59294C66.4324 5.80894 65.5044 5.02494 64.4004 4.22494ZM64.0004 8.00094L63.1844 8.78494C64.3044 9.64894 65.1844 10.4489 65.8244 11.1849L66.6404 10.3689C65.9364 9.56894 65.0564 8.78494 64.0004 8.00094ZM66.0164 12.4169C65.2964 14.3369 64.4484 16.2089 63.4884 18.0329L64.6404 18.5289C65.5204 16.7529 66.3204 14.8489 67.0404 12.8329L66.0164 12.4169ZM67.8084 6.68894L67.8084 7.82494L71.9684 7.82494L71.9684 11.6649L68.2564 11.6649L68.2564 12.7689L71.9684 12.7689L71.9684 16.9769L67.4084 16.9769L67.4084 18.1129L77.5684 18.1129L77.5684 16.9769L73.1364 16.9769L73.1364 12.7689L76.8324 12.7689L76.8324 11.6649L73.1364 11.6649L73.1364 7.82494L77.2644 7.82494L77.2644 6.68894L72.4964 6.68894L73.1524 6.43294C72.9124 5.66494 72.5604 4.83294 72.1124 3.90494L71.0244 4.20894C71.4404 5.00894 71.7924 5.82494 72.1124 6.68894L67.8084 6.68894Z"/>
<path clip-path="url(#TextBounds)" d="M79.8564 4.70494L79.8564 5.82494L85.6484 5.82494L85.6484 11.8729L79.2164 11.8729L79.2164 12.9769L85.6484 12.9769L85.6484 18.6409L86.8324 18.6409L86.8324 12.9769L93.3924 12.9769L93.3924 11.8729L86.8324 11.8729L86.8324 5.82494L92.7844 5.82494L92.7844 4.70494L79.8564 4.70494ZM81.8084 6.84894L80.7364 7.37694C81.3444 8.44894 81.9204 9.66494 82.4644 11.0409L83.5364 10.5129C82.9924 9.18494 82.4164 7.96894 81.8084 6.84894ZM90.8804 6.76894C90.4164 7.98494 89.7924 9.20094 89.0084 10.4489L90.0324 10.9769C90.8164 9.76094 91.4564 8.52894 91.9364 7.26494L90.8804 6.76894Z"/>
<path clip-path="url(#TextBounds)" d="M107.648 12.0009L96.9604 12.0009L96.9604 18.6729L98.1284 18.6729L98.1284 17.8729L106.48 17.8729L106.48 18.6729L107.648 18.6729L107.648 12.0009ZM98.1284 16.7689L98.1284 13.1049L106.48 13.1049L106.48 16.7689L98.1284 16.7689ZM95.8244 10.3529C99.9844 10.1929 103.744 9.96894 107.12 9.66494C107.504 10.2729 107.904 10.8969 108.304 11.5689L109.424 11.0249C108.24 9.08894 106.96 7.31294 105.584 5.71294L104.544 6.20894C105.184 6.94494 105.808 7.76094 106.416 8.62494C103.664 8.88094 100.752 9.08894 97.6804 9.21694C99.1204 8.03294 100.576 6.40094 102.016 4.35294L100.832 3.95294C98.7524 7.00894 97.0084 8.78494 95.6004 9.26494L95.8244 10.3529Z"/>
</g>
</g>
</svg>
