<?xml version="1.0" encoding="UTF-8" standalone="no"?>
<!DOCTYPE svg PUBLIC "-//W3C//DTD SVG 1.1//EN" "http://www.w3.org/Graphics/SVG/1.1/DTD/svg11.dtd">
<!-- Created with Vectornator (http://vectornator.io/) -->
<svg height="100%" stroke-miterlimit="10" style="fill-rule:nonzero;clip-rule:evenodd;stroke-linecap:round;stroke-linejoin:round;" version="1.1" viewBox="0 0 124 22" width="100%" xml:space="preserve" xmlns="http://www.w3.org/2000/svg" xmlns:vectornator="http://vectornator.io" xmlns:xlink="http://www.w3.org/1999/xlink">
<defs>
<clipPath id="TextBounds">
<rect height="19.0812" width="104.957" x="8.99149" y="-0.0326816"/>
</clipPath>
</defs>
<g id="Untitled" vectornator:layerName="Untitled">
<g fill="#000000" opacity="1" stroke="none">
<path clip-path="url(#TextBounds)" d="M14.3178 7.83132L14.3178 8.95132L16.0458 8.95132L16.0458 18.5513L17.1818 18.5513L17.1818 8.95132L18.7978 8.95132L18.7978 7.83132L17.1818 7.83132L17.1818 3.92732L16.0458 3.92732L16.0458 7.83132L14.3178 7.83132ZM19.0058 5.04732L19.0058 6.02332L23.1818 6.02332L23.1818 7.12732L19.5658 7.12732L19.5658 12.9353L20.6378 12.9353L20.6378 11.8153L23.1818 11.8153L23.1818 12.8233L24.2858 12.8233L24.2858 11.8153L26.8458 11.8153L26.8458 12.9193L27.9178 12.9193L27.9178 7.12732L24.2858 7.12732L24.2858 6.02332L28.4778 6.02332L28.4778 5.04732L27.1018 5.04732C26.9738 4.63132 26.8298 4.26332 26.6858 3.92732L25.6938 4.08732C25.8538 4.37532 26.0138 4.69532 26.1578 5.04732L24.2858 5.04732L24.2858 3.94332L23.1818 3.94332L23.1818 5.04732L19.0058 5.04732ZM20.6378 11.0313L20.6378 9.94332L23.1818 9.94332L23.1818 11.0313L20.6378 11.0313ZM24.2858 9.94332L26.8458 9.94332L26.8458 11.0313L24.2858 11.0313L24.2858 9.94332ZM20.6378 9.14332L20.6378 8.02332L23.1818 8.02332L23.1818 9.14332L20.6378 9.14332ZM24.2858 8.02332L26.8458 8.02332L26.8458 9.14332L24.2858 9.14332L24.2858 8.02332ZM18.6378 13.9433L18.6378 14.9673L25.5818 14.9673L25.5818 17.0313C25.5818 17.3833 25.4058 17.5593 25.0858 17.5593C24.5738 17.5593 24.0298 17.5273 23.4698 17.4793L23.7098 18.5513L25.4698 18.5513C26.2858 18.5513 26.7018 18.1353 26.7018 17.3033L26.7018 14.9673L28.7978 14.9673L28.7978 13.9433L26.7018 13.9433L26.7018 13.1433L25.5818 13.1433L25.5818 13.9433L18.6378 13.9433ZM20.9738 15.0153L20.2698 15.6873C21.2138 16.4233 21.9498 17.1113 22.4938 17.7513L23.2138 17.0313C22.6058 16.3593 21.8698 15.6873 20.9738 15.0153Z"/>
<path clip-path="url(#TextBounds)" d="M31.8538 4.82332L31.8538 5.94332L43.2458 5.94332L43.2458 4.82332L31.8538 4.82332ZM30.3178 9.28732L30.3178 10.4393L35.7098 10.4393C34.0298 13.8473 32.6698 15.9273 31.6458 16.6953C31.5818 16.7273 31.5018 16.7753 31.3738 16.8073L31.6778 17.9753C35.5178 17.7193 39.0538 17.3993 42.3018 16.9833C42.6058 17.5593 42.8778 18.1193 43.1338 18.6793L44.1578 17.9593C43.3578 16.3273 42.2218 14.3913 40.7498 12.1833L39.8218 12.7593C40.5258 13.8473 41.1658 14.9033 41.7418 15.9273C38.8778 16.3113 36.0138 16.5833 33.1338 16.7433C34.2218 15.5593 35.5178 13.4633 36.9898 10.4393L44.6698 10.4393L44.6698 9.28732L30.3178 9.28732Z"/>
<path clip-path="url(#TextBounds)" d="M48.5258 3.94332L48.5258 6.96732L46.5738 6.96732L46.5738 8.07132L48.5258 8.07132C48.0298 10.0873 47.2138 11.8953 46.0618 13.4633L46.5578 14.7113C47.3578 13.4633 48.0138 12.0873 48.5258 10.5833L48.5258 18.5513L49.6618 18.5513L49.6618 10.5353C50.1418 11.1433 50.7018 11.9433 51.3578 12.9513L52.0138 11.9753C51.2298 10.9993 50.4458 10.1033 49.6618 9.30332L49.6618 8.07132L51.5178 8.07132L51.5178 6.96732L49.6618 6.96732L49.6618 3.94332L48.5258 3.94332ZM53.2458 11.1753C52.7978 13.1593 52.0778 14.9513 51.0858 16.5673L52.0778 17.2073C53.0378 15.5753 53.7898 13.6553 54.3018 11.4153L53.2458 11.1753ZM59.0378 11.0953L57.9978 11.4313C58.6218 13.1593 59.1978 15.1273 59.7258 17.3513L60.7658 16.8873C60.2858 14.8393 59.7098 12.9033 59.0378 11.0953ZM55.4538 18.3913C56.3818 18.3913 56.8618 17.9113 56.8618 16.9673L56.8618 9.84732L60.7818 9.84732L60.7818 8.74332L51.8058 8.74332L51.8058 9.84732L55.7098 9.84732L55.7098 16.6793C55.7098 17.1433 55.4858 17.3833 55.0538 17.3833C54.5898 17.3833 54.1098 17.3513 53.5978 17.3193L53.8218 18.3913L55.4538 18.3913ZM52.6538 4.85532L52.6538 5.94332L59.9498 5.94332L59.9498 4.85532L52.6538 4.85532Z"/>
<path clip-path="url(#TextBounds)" d="M63.5658 4.13532L62.7338 4.93532C63.9178 5.76732 64.8618 6.56732 65.5338 7.31932L66.3498 6.50332C65.5978 5.71932 64.6698 4.93532 63.5658 4.13532ZM63.1658 7.91132L62.3498 8.69532C63.4698 9.55932 64.3498 10.3593 64.9898 11.0953L65.8058 10.2793C65.1018 9.47932 64.2218 8.69532 63.1658 7.91132ZM65.1818 12.3273C64.4618 14.2473 63.6138 16.1193 62.6538 17.9433L63.8058 18.4393C64.6858 16.6633 65.4858 14.7593 66.2058 12.7433L65.1818 12.3273ZM66.9738 6.59932L66.9738 7.73532L71.1338 7.73532L71.1338 11.5753L67.4218 11.5753L67.4218 12.6793L71.1338 12.6793L71.1338 16.8873L66.5738 16.8873L66.5738 18.0233L76.7338 18.0233L76.7338 16.8873L72.3018 16.8873L72.3018 12.6793L75.9978 12.6793L75.9978 11.5753L72.3018 11.5753L72.3018 7.73532L76.4298 7.73532L76.4298 6.59932L71.6618 6.59932L72.3178 6.34332C72.0778 5.57532 71.7258 4.74332 71.2778 3.81532L70.1898 4.11932C70.6058 4.91932 70.9578 5.73532 71.2778 6.59932L66.9738 6.59932Z"/>
<path clip-path="url(#TextBounds)" d="M79.0218 4.61532L79.0218 5.73532L84.8138 5.73532L84.8138 11.7833L78.3818 11.7833L78.3818 12.8873L84.8138 12.8873L84.8138 18.5513L85.9978 18.5513L85.9978 12.8873L92.5578 12.8873L92.5578 11.7833L85.9978 11.7833L85.9978 5.73532L91.9498 5.73532L91.9498 4.61532L79.0218 4.61532ZM80.9738 6.75932L79.9018 7.28732C80.5098 8.35932 81.0858 9.57532 81.6298 10.9513L82.7018 10.4233C82.1578 9.09532 81.5818 7.87932 80.9738 6.75932ZM90.0458 6.67932C89.5818 7.89532 88.9578 9.11132 88.1738 10.3593L89.1978 10.8873C89.9818 9.67132 90.6218 8.43932 91.1018 7.17532L90.0458 6.67932Z"/>
<path clip-path="url(#TextBounds)" d="M106.814 11.9113L96.1258 11.9113L96.1258 18.5833L97.2938 18.5833L97.2938 17.7833L105.646 17.7833L105.646 18.5833L106.814 18.5833L106.814 11.9113ZM97.2938 16.6793L97.2938 13.0153L105.646 13.0153L105.646 16.6793L97.2938 16.6793ZM94.9898 10.2633C99.1498 10.1033 102.91 9.87932 106.286 9.57532C106.67 10.1833 107.07 10.8073 107.47 11.4793L108.59 10.9353C107.406 8.99932 106.126 7.22332 104.75 5.62332L103.71 6.11932C104.35 6.85532 104.974 7.67132 105.582 8.53532C102.83 8.79132 99.9178 8.99932 96.8458 9.12732C98.2858 7.94332 99.7418 6.31132 101.182 4.26332L99.9978 3.86332C97.9178 6.91932 96.1738 8.69532 94.7658 9.17532L94.9898 10.2633Z"/>
</g>
</g>
</svg>
